<mxfile host="app.diagrams.net" agent="Mozilla/5.0 (Windows NT 10.0; Win64; x64) AppleWebKit/537.36 (KHTML, like Gecko) Chrome/134.0.0.0 Safari/537.36" version="26.2.1">
  <diagram id="C5RBs43oDa-KdzZeNtuy" name="Page-1">
    <mxGraphModel dx="1053" dy="654" grid="0" gridSize="10" guides="1" tooltips="1" connect="1" arrows="1" fold="1" page="1" pageScale="1" pageWidth="827" pageHeight="1169" math="0" shadow="0">
      <root>
        <mxCell id="WIyWlLk6GJQsqaUBKTNV-0" />
        <mxCell id="WIyWlLk6GJQsqaUBKTNV-1" parent="WIyWlLk6GJQsqaUBKTNV-0" />
        <mxCell id="GEPSyZJp9nbFbYlHAnnY-9" style="edgeStyle=orthogonalEdgeStyle;rounded=0;orthogonalLoop=1;jettySize=auto;html=1;exitX=0.5;exitY=1;exitDx=0;exitDy=0;entryX=0.5;entryY=0;entryDx=0;entryDy=0;labelBackgroundColor=none;strokeColor=#457B9D;fontColor=default;" parent="WIyWlLk6GJQsqaUBKTNV-1" source="WIyWlLk6GJQsqaUBKTNV-6" target="WIyWlLk6GJQsqaUBKTNV-12" edge="1">
          <mxGeometry relative="1" as="geometry" />
        </mxCell>
        <mxCell id="WIyWlLk6GJQsqaUBKTNV-6" value="查看已有报告" style="rhombus;whiteSpace=wrap;html=1;shadow=0;fontFamily=Helvetica;fontSize=12;align=center;strokeWidth=1;spacing=6;spacingTop=-4;labelBackgroundColor=none;fillColor=light-dark(#527598, #2566a8);strokeColor=#006EAF;fontColor=#ffffff;verticalAlign=middle;" parent="WIyWlLk6GJQsqaUBKTNV-1" vertex="1">
          <mxGeometry x="170" y="160" width="100" height="60" as="geometry" />
        </mxCell>
        <mxCell id="GEPSyZJp9nbFbYlHAnnY-10" style="edgeStyle=orthogonalEdgeStyle;rounded=0;orthogonalLoop=1;jettySize=auto;html=1;exitX=0;exitY=0.5;exitDx=0;exitDy=0;entryX=0;entryY=0.5;entryDx=0;entryDy=0;endArrow=none;startFill=0;labelBackgroundColor=none;strokeColor=#457B9D;fontColor=default;" parent="WIyWlLk6GJQsqaUBKTNV-1" source="WIyWlLk6GJQsqaUBKTNV-10" target="WIyWlLk6GJQsqaUBKTNV-12" edge="1">
          <mxGeometry relative="1" as="geometry" />
        </mxCell>
        <mxCell id="WIyWlLk6GJQsqaUBKTNV-10" value="编辑" style="rhombus;whiteSpace=wrap;html=1;shadow=0;fontFamily=Helvetica;fontSize=12;align=center;strokeWidth=1;spacing=6;spacingTop=-4;labelBackgroundColor=none;fillColor=light-dark(#527598, #2566a8);strokeColor=#006EAF;fontColor=#ffffff;verticalAlign=middle;" parent="WIyWlLk6GJQsqaUBKTNV-1" vertex="1">
          <mxGeometry x="180" y="300" width="80" height="40" as="geometry" />
        </mxCell>
        <mxCell id="GEPSyZJp9nbFbYlHAnnY-19" style="edgeStyle=orthogonalEdgeStyle;rounded=0;orthogonalLoop=1;jettySize=auto;html=1;exitX=0.5;exitY=1;exitDx=0;exitDy=0;labelBackgroundColor=none;strokeColor=#457B9D;fontColor=default;" parent="WIyWlLk6GJQsqaUBKTNV-1" source="WIyWlLk6GJQsqaUBKTNV-11" edge="1">
          <mxGeometry relative="1" as="geometry">
            <mxPoint x="220" y="430" as="targetPoint" />
          </mxGeometry>
        </mxCell>
        <mxCell id="WIyWlLk6GJQsqaUBKTNV-11" value="进行编辑，可插入图片等" style="rounded=1;whiteSpace=wrap;html=1;fontSize=12;glass=0;strokeWidth=1;shadow=0;labelBackgroundColor=none;fillColor=#A8DADC;strokeColor=#457B9D;fontColor=#1D3557;" parent="WIyWlLk6GJQsqaUBKTNV-1" vertex="1">
          <mxGeometry x="167.5" y="360" width="120" height="40" as="geometry" />
        </mxCell>
        <mxCell id="GEPSyZJp9nbFbYlHAnnY-8" style="edgeStyle=orthogonalEdgeStyle;rounded=0;orthogonalLoop=1;jettySize=auto;html=1;exitX=0.5;exitY=1;exitDx=0;exitDy=0;entryX=0.5;entryY=0;entryDx=0;entryDy=0;labelBackgroundColor=none;strokeColor=#457B9D;fontColor=default;" parent="WIyWlLk6GJQsqaUBKTNV-1" source="WIyWlLk6GJQsqaUBKTNV-12" target="WIyWlLk6GJQsqaUBKTNV-10" edge="1">
          <mxGeometry relative="1" as="geometry" />
        </mxCell>
        <mxCell id="WIyWlLk6GJQsqaUBKTNV-12" value="显示该报告" style="rounded=1;whiteSpace=wrap;html=1;fontSize=12;glass=0;strokeWidth=1;shadow=0;labelBackgroundColor=none;fillColor=#A8DADC;strokeColor=#457B9D;fontColor=#1D3557;" parent="WIyWlLk6GJQsqaUBKTNV-1" vertex="1">
          <mxGeometry x="160" y="240" width="120" height="40" as="geometry" />
        </mxCell>
        <mxCell id="GEPSyZJp9nbFbYlHAnnY-56" style="edgeStyle=orthogonalEdgeStyle;rounded=0;orthogonalLoop=1;jettySize=auto;html=1;exitX=1;exitY=0.5;exitDx=0;exitDy=0;strokeColor=#457B9D;fontColor=#1D3557;fillColor=#A8DADC;" parent="WIyWlLk6GJQsqaUBKTNV-1" source="GEPSyZJp9nbFbYlHAnnY-0" target="GEPSyZJp9nbFbYlHAnnY-51" edge="1">
          <mxGeometry relative="1" as="geometry" />
        </mxCell>
        <mxCell id="GEPSyZJp9nbFbYlHAnnY-0" value="实验报告" style="shape=document;whiteSpace=wrap;html=1;boundedLbl=1;labelBackgroundColor=none;fillColor=#fff2cc;strokeColor=#d6b656;" parent="WIyWlLk6GJQsqaUBKTNV-1" vertex="1">
          <mxGeometry x="338" y="460" width="80" height="50" as="geometry" />
        </mxCell>
        <mxCell id="GEPSyZJp9nbFbYlHAnnY-11" style="edgeStyle=orthogonalEdgeStyle;rounded=0;orthogonalLoop=1;jettySize=auto;html=1;exitX=0.5;exitY=1;exitDx=0;exitDy=0;entryX=0.449;entryY=0.034;entryDx=0;entryDy=0;entryPerimeter=0;labelBackgroundColor=none;strokeColor=#457B9D;fontColor=default;" parent="WIyWlLk6GJQsqaUBKTNV-1" source="WIyWlLk6GJQsqaUBKTNV-10" target="WIyWlLk6GJQsqaUBKTNV-11" edge="1">
          <mxGeometry relative="1" as="geometry" />
        </mxCell>
        <mxCell id="GEPSyZJp9nbFbYlHAnnY-12" value="yes" style="text;html=1;align=center;verticalAlign=middle;resizable=0;points=[];autosize=1;strokeColor=none;fillColor=none;labelBackgroundColor=none;fontColor=#1D3557;" parent="WIyWlLk6GJQsqaUBKTNV-1" vertex="1">
          <mxGeometry x="220" y="328" width="40" height="30" as="geometry" />
        </mxCell>
        <mxCell id="GEPSyZJp9nbFbYlHAnnY-13" value="no" style="text;html=1;align=center;verticalAlign=middle;resizable=0;points=[];autosize=1;strokeColor=none;fillColor=none;labelBackgroundColor=none;fontColor=#1D3557;" parent="WIyWlLk6GJQsqaUBKTNV-1" vertex="1">
          <mxGeometry x="110" y="278" width="40" height="30" as="geometry" />
        </mxCell>
        <mxCell id="GEPSyZJp9nbFbYlHAnnY-14" value="yes" style="text;html=1;align=center;verticalAlign=middle;resizable=0;points=[];autosize=1;strokeColor=none;fillColor=none;labelBackgroundColor=none;fontColor=#1D3557;" parent="WIyWlLk6GJQsqaUBKTNV-1" vertex="1">
          <mxGeometry x="210" y="208" width="40" height="30" as="geometry" />
        </mxCell>
        <mxCell id="GEPSyZJp9nbFbYlHAnnY-20" value="保存" style="strokeWidth=1;html=1;shape=mxgraph.flowchart.decision;whiteSpace=wrap;labelBackgroundColor=none;fillColor=light-dark(#527598, #2566a8);strokeColor=#006EAF;fontColor=#ffffff;align=center;verticalAlign=middle;fontFamily=Helvetica;fontSize=12;shadow=0;spacingTop=-4;spacing=6;" parent="WIyWlLk6GJQsqaUBKTNV-1" vertex="1">
          <mxGeometry x="170" y="430" width="100" height="50" as="geometry" />
        </mxCell>
        <mxCell id="GEPSyZJp9nbFbYlHAnnY-23" value="结束" style="strokeWidth=2;html=1;shape=mxgraph.flowchart.start_1;whiteSpace=wrap;labelBackgroundColor=none;fillColor=#dae8fc;strokeColor=#6c8ebf;" parent="WIyWlLk6GJQsqaUBKTNV-1" vertex="1">
          <mxGeometry x="167.5" y="510" width="100" height="60" as="geometry" />
        </mxCell>
        <mxCell id="GEPSyZJp9nbFbYlHAnnY-24" style="edgeStyle=orthogonalEdgeStyle;rounded=0;orthogonalLoop=1;jettySize=auto;html=1;exitX=0.5;exitY=1;exitDx=0;exitDy=0;exitPerimeter=0;entryX=0.5;entryY=0;entryDx=0;entryDy=0;entryPerimeter=0;labelBackgroundColor=none;strokeColor=#457B9D;fontColor=default;" parent="WIyWlLk6GJQsqaUBKTNV-1" source="GEPSyZJp9nbFbYlHAnnY-20" target="GEPSyZJp9nbFbYlHAnnY-23" edge="1">
          <mxGeometry relative="1" as="geometry" />
        </mxCell>
        <mxCell id="GEPSyZJp9nbFbYlHAnnY-27" value="yes" style="text;html=1;align=center;verticalAlign=middle;resizable=0;points=[];autosize=1;strokeColor=none;fillColor=none;labelBackgroundColor=none;fontColor=#1D3557;" parent="WIyWlLk6GJQsqaUBKTNV-1" vertex="1">
          <mxGeometry x="210" y="478" width="40" height="30" as="geometry" />
        </mxCell>
        <mxCell id="GEPSyZJp9nbFbYlHAnnY-33" style="edgeStyle=orthogonalEdgeStyle;rounded=0;orthogonalLoop=1;jettySize=auto;html=1;exitX=0.5;exitY=1;exitDx=0;exitDy=0;exitPerimeter=0;entryX=0.5;entryY=0;entryDx=0;entryDy=0;labelBackgroundColor=none;strokeColor=#457B9D;fontColor=default;" parent="WIyWlLk6GJQsqaUBKTNV-1" target="GEPSyZJp9nbFbYlHAnnY-29" edge="1">
          <mxGeometry relative="1" as="geometry">
            <mxPoint x="378" y="142" as="sourcePoint" />
          </mxGeometry>
        </mxCell>
        <mxCell id="GEPSyZJp9nbFbYlHAnnY-29" value="点击相应下载按钮" style="rounded=1;whiteSpace=wrap;html=1;absoluteArcSize=1;arcSize=14;strokeWidth=2;labelBackgroundColor=none;fillColor=#A8DADC;strokeColor=#457B9D;fontColor=#1D3557;" parent="WIyWlLk6GJQsqaUBKTNV-1" vertex="1">
          <mxGeometry x="328" y="162" width="100" height="40" as="geometry" />
        </mxCell>
        <mxCell id="GEPSyZJp9nbFbYlHAnnY-36" style="edgeStyle=orthogonalEdgeStyle;rounded=0;orthogonalLoop=1;jettySize=auto;html=1;exitX=0.5;exitY=1;exitDx=0;exitDy=0;exitPerimeter=0;endArrow=none;startFill=0;labelBackgroundColor=none;strokeColor=#457B9D;fontColor=default;" parent="WIyWlLk6GJQsqaUBKTNV-1" source="GEPSyZJp9nbFbYlHAnnY-30" target="GEPSyZJp9nbFbYlHAnnY-0" edge="1">
          <mxGeometry relative="1" as="geometry" />
        </mxCell>
        <mxCell id="GEPSyZJp9nbFbYlHAnnY-30" value="选择word格式" style="strokeWidth=1;html=1;shape=mxgraph.flowchart.decision;whiteSpace=wrap;labelBackgroundColor=none;fillColor=light-dark(#527598, #2566a8);strokeColor=#006EAF;fontColor=#ffffff;shadow=0;align=center;verticalAlign=middle;spacingTop=-4;spacing=6;fontFamily=Helvetica;fontSize=12;" parent="WIyWlLk6GJQsqaUBKTNV-1" vertex="1">
          <mxGeometry x="328" y="220" width="100" height="62" as="geometry" />
        </mxCell>
        <mxCell id="GEPSyZJp9nbFbYlHAnnY-38" style="edgeStyle=orthogonalEdgeStyle;rounded=0;orthogonalLoop=1;jettySize=auto;html=1;exitX=0.5;exitY=1;exitDx=0;exitDy=0;exitPerimeter=0;endArrow=none;startFill=0;labelBackgroundColor=none;strokeColor=#457B9D;fontColor=default;" parent="WIyWlLk6GJQsqaUBKTNV-1" source="GEPSyZJp9nbFbYlHAnnY-31" edge="1">
          <mxGeometry relative="1" as="geometry">
            <mxPoint x="378" y="452" as="targetPoint" />
            <Array as="points">
              <mxPoint x="468" y="402" />
              <mxPoint x="379" y="402" />
            </Array>
          </mxGeometry>
        </mxCell>
        <mxCell id="GEPSyZJp9nbFbYlHAnnY-31" value="选择html格式" style="strokeWidth=1;html=1;shape=mxgraph.flowchart.decision;whiteSpace=wrap;labelBackgroundColor=none;fillColor=light-dark(#527598, #2566a8);strokeColor=#006EAF;fontColor=#ffffff;shadow=0;align=center;verticalAlign=middle;spacingTop=-4;spacing=6;fontFamily=Helvetica;fontSize=12;" parent="WIyWlLk6GJQsqaUBKTNV-1" vertex="1">
          <mxGeometry x="418" y="272" width="100" height="60" as="geometry" />
        </mxCell>
        <mxCell id="GEPSyZJp9nbFbYlHAnnY-39" style="edgeStyle=orthogonalEdgeStyle;rounded=0;orthogonalLoop=1;jettySize=auto;html=1;exitX=0.5;exitY=1;exitDx=0;exitDy=0;exitPerimeter=0;endArrow=classic;startFill=0;labelBackgroundColor=none;strokeColor=#457B9D;fontColor=default;entryX=0.5;entryY=0;entryDx=0;entryDy=0;endFill=1;align=center;verticalAlign=middle;fontFamily=Helvetica;fontSize=11;" parent="WIyWlLk6GJQsqaUBKTNV-1" target="GEPSyZJp9nbFbYlHAnnY-0" edge="1">
          <mxGeometry relative="1" as="geometry">
            <mxPoint x="378" y="452" as="targetPoint" />
            <mxPoint x="567.9999999999998" y="411" as="sourcePoint" />
            <Array as="points">
              <mxPoint x="548" y="412" />
              <mxPoint x="378" y="412" />
            </Array>
          </mxGeometry>
        </mxCell>
        <mxCell id="GEPSyZJp9nbFbYlHAnnY-54" style="edgeStyle=orthogonalEdgeStyle;rounded=0;orthogonalLoop=1;jettySize=auto;html=1;exitX=0.5;exitY=1;exitDx=0;exitDy=0;exitPerimeter=0;strokeColor=#457B9D;fontColor=#1D3557;fillColor=#A8DADC;endArrow=none;startFill=0;" parent="WIyWlLk6GJQsqaUBKTNV-1" source="GEPSyZJp9nbFbYlHAnnY-32" edge="1">
          <mxGeometry relative="1" as="geometry">
            <mxPoint x="567.5294117647059" y="412" as="targetPoint" />
          </mxGeometry>
        </mxCell>
        <mxCell id="GEPSyZJp9nbFbYlHAnnY-32" value="选择新窗口打开，&lt;div&gt;进行pdf打印&lt;/div&gt;" style="strokeWidth=1;html=1;shape=mxgraph.flowchart.decision;whiteSpace=wrap;labelBackgroundColor=none;fillColor=light-dark(#527598, #2566a8);strokeColor=#006EAF;fontColor=#ffffff;shadow=0;align=center;verticalAlign=middle;spacingTop=-4;spacing=6;fontFamily=Helvetica;fontSize=12;" parent="WIyWlLk6GJQsqaUBKTNV-1" vertex="1">
          <mxGeometry x="498" y="329" width="140" height="72" as="geometry" />
        </mxCell>
        <mxCell id="GEPSyZJp9nbFbYlHAnnY-34" style="edgeStyle=orthogonalEdgeStyle;rounded=0;orthogonalLoop=1;jettySize=auto;html=1;exitX=0.5;exitY=1;exitDx=0;exitDy=0;entryX=0.5;entryY=0;entryDx=0;entryDy=0;entryPerimeter=0;labelBackgroundColor=none;strokeColor=#457B9D;fontColor=default;" parent="WIyWlLk6GJQsqaUBKTNV-1" source="GEPSyZJp9nbFbYlHAnnY-29" target="GEPSyZJp9nbFbYlHAnnY-30" edge="1">
          <mxGeometry relative="1" as="geometry" />
        </mxCell>
        <mxCell id="GEPSyZJp9nbFbYlHAnnY-37" style="edgeStyle=orthogonalEdgeStyle;rounded=0;orthogonalLoop=1;jettySize=auto;html=1;exitX=1;exitY=0.5;exitDx=0;exitDy=0;exitPerimeter=0;entryX=0.5;entryY=0;entryDx=0;entryDy=0;entryPerimeter=0;labelBackgroundColor=none;strokeColor=#457B9D;fontColor=default;endArrow=none;startFill=0;" parent="WIyWlLk6GJQsqaUBKTNV-1" source="GEPSyZJp9nbFbYlHAnnY-30" target="GEPSyZJp9nbFbYlHAnnY-31" edge="1">
          <mxGeometry relative="1" as="geometry" />
        </mxCell>
        <mxCell id="GEPSyZJp9nbFbYlHAnnY-44" value="no" style="text;html=1;align=center;verticalAlign=middle;resizable=0;points=[];autosize=1;strokeColor=none;fillColor=none;labelBackgroundColor=none;fontColor=#1D3557;" parent="WIyWlLk6GJQsqaUBKTNV-1" vertex="1">
          <mxGeometry x="418" y="220" width="40" height="30" as="geometry" />
        </mxCell>
        <mxCell id="GEPSyZJp9nbFbYlHAnnY-45" value="no" style="text;html=1;align=center;verticalAlign=middle;resizable=0;points=[];autosize=1;strokeColor=none;fillColor=none;labelBackgroundColor=none;fontColor=#1D3557;" parent="WIyWlLk6GJQsqaUBKTNV-1" vertex="1">
          <mxGeometry x="508" y="262" width="40" height="30" as="geometry" />
        </mxCell>
        <mxCell id="GEPSyZJp9nbFbYlHAnnY-46" value="yes" style="text;html=1;align=center;verticalAlign=middle;resizable=0;points=[];autosize=1;strokeColor=none;fillColor=none;labelBackgroundColor=none;fontColor=#1D3557;" parent="WIyWlLk6GJQsqaUBKTNV-1" vertex="1">
          <mxGeometry x="338" y="336" width="40" height="30" as="geometry" />
        </mxCell>
        <mxCell id="GEPSyZJp9nbFbYlHAnnY-47" value="yes" style="text;html=1;align=center;verticalAlign=middle;resizable=0;points=[];autosize=1;strokeColor=none;fillColor=none;labelBackgroundColor=none;fontColor=#1D3557;" parent="WIyWlLk6GJQsqaUBKTNV-1" vertex="1">
          <mxGeometry x="408" y="336" width="40" height="30" as="geometry" />
        </mxCell>
        <mxCell id="GEPSyZJp9nbFbYlHAnnY-48" value="yes" style="text;html=1;align=center;verticalAlign=middle;resizable=0;points=[];autosize=1;strokeColor=none;fillColor=none;labelBackgroundColor=none;fontColor=#1D3557;" parent="WIyWlLk6GJQsqaUBKTNV-1" vertex="1">
          <mxGeometry x="498" y="402" width="40" height="30" as="geometry" />
        </mxCell>
        <mxCell id="GEPSyZJp9nbFbYlHAnnY-50" style="edgeStyle=orthogonalEdgeStyle;rounded=0;orthogonalLoop=1;jettySize=auto;html=1;exitX=1;exitY=0.5;exitDx=0;exitDy=0;labelBackgroundColor=none;strokeColor=#457B9D;fontColor=default;" parent="WIyWlLk6GJQsqaUBKTNV-1" edge="1">
          <mxGeometry relative="1" as="geometry">
            <mxPoint x="1052.4999999999998" y="422.6470588235294" as="targetPoint" />
            <mxPoint x="1002.5" y="423" as="sourcePoint" />
          </mxGeometry>
        </mxCell>
        <mxCell id="GEPSyZJp9nbFbYlHAnnY-51" value="结束" style="strokeWidth=2;html=1;shape=mxgraph.flowchart.start_1;whiteSpace=wrap;labelBackgroundColor=none;fillColor=#dae8fc;strokeColor=#6c8ebf;" parent="WIyWlLk6GJQsqaUBKTNV-1" vertex="1">
          <mxGeometry x="473" y="460" width="90" height="50" as="geometry" />
        </mxCell>
        <mxCell id="GEPSyZJp9nbFbYlHAnnY-53" style="edgeStyle=orthogonalEdgeStyle;rounded=0;orthogonalLoop=1;jettySize=auto;html=1;exitX=1;exitY=0.5;exitDx=0;exitDy=0;exitPerimeter=0;entryX=0.5;entryY=0;entryDx=0;entryDy=0;entryPerimeter=0;strokeColor=#457B9D;fontColor=#1D3557;fillColor=#A8DADC;endArrow=none;startFill=0;" parent="WIyWlLk6GJQsqaUBKTNV-1" source="GEPSyZJp9nbFbYlHAnnY-31" target="GEPSyZJp9nbFbYlHAnnY-32" edge="1">
          <mxGeometry relative="1" as="geometry" />
        </mxCell>
        <mxCell id="Q-7GObroI7ku3u2BIK5A-0" value="开始" style="strokeWidth=2;html=1;shape=mxgraph.flowchart.start_2;whiteSpace=wrap;labelBackgroundColor=none;fillColor=#dae8fc;strokeColor=#6c8ebf;" vertex="1" parent="WIyWlLk6GJQsqaUBKTNV-1">
          <mxGeometry x="167.5" y="40" width="105" height="40" as="geometry" />
        </mxCell>
        <mxCell id="Q-7GObroI7ku3u2BIK5A-1" value="&lt;span style=&quot;color: rgb(0, 0, 0);&quot;&gt;进入实验报告页面&lt;/span&gt;" style="rounded=1;whiteSpace=wrap;html=1;fontSize=12;glass=0;strokeWidth=1;shadow=0;labelBackgroundColor=none;fillColor=#A8DADC;strokeColor=#457B9D;fontColor=#1D3557;" vertex="1" parent="WIyWlLk6GJQsqaUBKTNV-1">
          <mxGeometry x="157.5" y="100" width="120" height="40" as="geometry" />
        </mxCell>
        <mxCell id="Q-7GObroI7ku3u2BIK5A-3" style="edgeStyle=orthogonalEdgeStyle;rounded=0;orthogonalLoop=1;jettySize=auto;html=1;exitX=0.5;exitY=1;exitDx=0;exitDy=0;entryX=0.5;entryY=0;entryDx=0;entryDy=0;labelBackgroundColor=none;strokeColor=#457B9D;fontColor=default;" edge="1" parent="WIyWlLk6GJQsqaUBKTNV-1" source="WIyWlLk6GJQsqaUBKTNV-12" target="WIyWlLk6GJQsqaUBKTNV-10">
          <mxGeometry relative="1" as="geometry">
            <mxPoint x="220" y="280" as="sourcePoint" />
            <mxPoint x="220" y="300" as="targetPoint" />
            <Array as="points">
              <mxPoint x="220" y="280" />
            </Array>
          </mxGeometry>
        </mxCell>
        <mxCell id="Q-7GObroI7ku3u2BIK5A-5" style="edgeStyle=orthogonalEdgeStyle;rounded=0;orthogonalLoop=1;jettySize=auto;html=1;labelBackgroundColor=none;strokeColor=#457B9D;fontColor=default;exitX=0.5;exitY=1;exitDx=0;exitDy=0;exitPerimeter=0;" edge="1" parent="WIyWlLk6GJQsqaUBKTNV-1" source="Q-7GObroI7ku3u2BIK5A-0">
          <mxGeometry relative="1" as="geometry">
            <mxPoint x="220" y="100" as="targetPoint" />
            <mxPoint x="220" y="90" as="sourcePoint" />
            <Array as="points" />
          </mxGeometry>
        </mxCell>
        <mxCell id="Q-7GObroI7ku3u2BIK5A-6" style="edgeStyle=orthogonalEdgeStyle;rounded=0;orthogonalLoop=1;jettySize=auto;html=1;labelBackgroundColor=none;strokeColor=#457B9D;fontColor=default;" edge="1" parent="WIyWlLk6GJQsqaUBKTNV-1">
          <mxGeometry relative="1" as="geometry">
            <mxPoint x="220" y="160" as="targetPoint" />
            <mxPoint x="220" y="160" as="sourcePoint" />
            <Array as="points">
              <mxPoint x="220" y="140" />
              <mxPoint x="220" y="170" />
            </Array>
          </mxGeometry>
        </mxCell>
        <mxCell id="Q-7GObroI7ku3u2BIK5A-7" value="开始" style="strokeWidth=2;html=1;shape=mxgraph.flowchart.start_2;whiteSpace=wrap;labelBackgroundColor=none;fillColor=#dae8fc;strokeColor=#6c8ebf;" vertex="1" parent="WIyWlLk6GJQsqaUBKTNV-1">
          <mxGeometry x="323" y="42" width="105" height="40" as="geometry" />
        </mxCell>
        <mxCell id="Q-7GObroI7ku3u2BIK5A-8" value="&lt;span style=&quot;color: rgb(0, 0, 0);&quot;&gt;进入实验报告页面&lt;/span&gt;" style="rounded=1;whiteSpace=wrap;html=1;fontSize=12;glass=0;strokeWidth=1;shadow=0;labelBackgroundColor=none;fillColor=#A8DADC;strokeColor=#457B9D;fontColor=#1D3557;" vertex="1" parent="WIyWlLk6GJQsqaUBKTNV-1">
          <mxGeometry x="318" y="102" width="120" height="40" as="geometry" />
        </mxCell>
        <mxCell id="Q-7GObroI7ku3u2BIK5A-9" style="edgeStyle=orthogonalEdgeStyle;rounded=0;orthogonalLoop=1;jettySize=auto;html=1;labelBackgroundColor=none;strokeColor=#457B9D;fontColor=default;exitX=0.5;exitY=1;exitDx=0;exitDy=0;exitPerimeter=0;" edge="1" source="Q-7GObroI7ku3u2BIK5A-7" parent="WIyWlLk6GJQsqaUBKTNV-1">
          <mxGeometry relative="1" as="geometry">
            <mxPoint x="375.5" y="102" as="targetPoint" />
            <mxPoint x="375.5" y="92" as="sourcePoint" />
            <Array as="points" />
          </mxGeometry>
        </mxCell>
      </root>
    </mxGraphModel>
  </diagram>
</mxfile>
